<svg xmlns="http://www.w3.org/2000/svg" xmlns:xlink="http://www.w3.org/1999/xlink" preserveAspectRatio="xMidYMid" width="64" height="64" viewBox="0 0 64 64">
  <path d="M58.999,56.624 C59.000,58.593 58.228,60.444 56.827,61.838 C55.426,63.231 53.564,63.999 51.583,63.999 L12.429,64.000 C8.338,64.000 5.011,60.690 5.011,56.622 L5.011,7.376 C5.011,3.310 8.339,0.001 12.430,0.001 L51.581,0.001 C55.671,0.001 59.000,3.308 59.000,7.375 L58.999,56.624 ZM12.429,63.000 L51.583,62.999 C53.295,62.999 54.905,62.336 56.116,61.131 C57.327,59.927 57.993,58.326 57.993,56.624 L57.993,49.988 L6.017,49.988 L6.017,56.622 C6.017,60.138 8.893,63.000 12.429,63.000 ZM51.581,1.001 L12.430,1.001 C8.893,1.001 6.017,3.861 6.017,7.376 L6.017,48.988 L57.993,48.988 L57.994,7.375 C57.994,3.859 55.118,1.001 51.581,1.001 ZM33.501,54.007 C34.884,54.007 36.003,55.129 36.003,56.512 C36.003,57.893 34.884,59.015 33.501,59.015 C32.119,59.015 30.998,57.893 30.998,56.512 C30.998,55.129 32.119,54.007 33.501,54.007 Z" class="cls-1"/>
</svg>
